{"title":"[MARATHI] Gholat Ghol - Drama x264 MP3 [TMB]","uid":8560113,"size":672389758,"categoryP":"video","categoryS":"movies","magnet":"?xt=urn:btih:cd9a9969286ac348a8ff8263e22d415c3ccec2a4&amp;dn=%5BMARATHI%5D+Gholat+Ghol+-+Drama+x264+MP3+%5BTMB%5D&amp;tr=udp%3A%2F%2Ftracker.openbittorrent.com%3A80&amp;tr=udp%3A%2F%2Fopen.demonii.com%3A1337&amp;tr=udp%3A%2F%2Ftracker.coppersurfer.tk%3A6969&amp;tr=udp%3A%2F%2Fexodus.desync.com%3A6969","seeders":0,"leechers":2,"uploader":"SJonam","files":1,"time":1370862362,"description":" &lt;a href=&quot;\nhttp://desibbrg.org/images/81495356554835998970.png&quot; rel=&quot;nofollow&quot; target=&quot;_NEW&quot;&gt;\nhttp://desibbrg.org/images/81495356554835998970.png&lt;/a&gt; &lt;a href=&quot;\nhttp://desibbrg.org/images/78351950688200751266.png&quot; rel=&quot;nofollow&quot; target=&quot;_NEW&quot;&gt;\nhttp://desibbrg.org/images/78351950688200751266.png&lt;/a&gt; &lt;a href=&quot;\nhttp://desibbrg.org/images/65321789974589923934.png&quot; rel=&quot;nofollow&quot; target=&quot;_NEW&quot;&gt;\nhttp://desibbrg.org/images/65321789974589923934.png&lt;/a&gt; &lt;a href=&quot;\nhttp://desibbrg.org/images/78396679144927736971.png&quot; rel=&quot;nofollow&quot; target=&quot;_NEW&quot;&gt;\nhttp://desibbrg.org/images/78396679144927736971.png&lt;/a&gt; &lt;a href=&quot;\nhttp://desibbrg.org/images/00797297097853487376.png&quot; rel=&quot;nofollow&quot; target=&quot;_NEW&quot;&gt;\nhttp://desibbrg.org/images/00797297097853487376.png&lt;/a&gt;\n\nGeneral\nComplete name                  : Gholat Ghol - Marathi Drama x264 MP3 [TMB].avi\nFormat                         : AVI\nFormat/Info                    : Audio Video Interleave\nFile size                      : 641 MiB\nDuration                       : 2h 6mn\nOverall bit rate               : 707 Kbps\nWriting application            : Lavf54.63.104\n\nVideo\nID                             : 0\nFormat                         : AVC\nFormat/Info                    : Advanced Video Codec\nFormat profile                 : &lt;a class=&quot;__cf_email__&quot; href=&quot;/cdn-cgi/l/email-protection&quot; data-cfemail=&quot;1d55747a755d512e332d&quot;&gt;[email&amp;#160;protected]&lt;/a&gt;&lt;script cf-hash='f9e31' type=&quot;text/javascript&quot;&gt;\n/* &lt;![CDATA[ */!function(){try{var t=&quot;currentScript&quot;in document?document.currentScript:function(){for(var t=document.getElementsByTagName(&quot;script&quot;),e=t.length;e--;)if(t[e].getAttribute(&quot;cf-hash&quot;))return t[e]}();if(t&amp;&amp;t.previousSibling){var e,r,n,i,c=t.previousSibling,a=c.getAttribute(&quot;data-cfemail&quot;);if(a){for(e=&quot;&quot;,r=parseInt(a.substr(0,2),16),n=2;a.length-n;n+=2)i=parseInt(a.substr(n,2),16)^r,e+=String.fromCharCode(i);e=document.createTextNode(e),c.parentNode.replaceChild(e,c)}}}catch(u){}}();/* ]]&gt; */&lt;/script&gt;\nFormat settings, CABAC         : Yes\nFormat settings, ReFrames      : 1 frame\nCodec ID                       : H264\nDuration                       : 2h 6mn\nBit rate                       : 439 Kbps\nWidth                          : 640 pixels\nHeight                         : 480 pixels\nDisplay aspect ratio           : 4:3\nFrame rate mode                : Variable\nFrame rate                     : 25.000 fps\nColor space                    : YUV\nChroma subsampling             : 4:2:0\nBit depth                      : 8 bits\nScan type                      : Progressive\nBits/(Pixel*Frame)             : 0.057\nStream size                    : 398 MiB (62%)\nWriting library                : x264 core 129\n\nAudio\nID                             : 1\nFormat                         : MPEG Audio\nFormat version                 : Version 1\nFormat profile                 : Layer 3\nMode                           : Joint stereo\nMode extension                 : MS Stereo\nCodec ID                       : 55\nCodec ID/Hint                  : MP3\nDuration                       : 2h 6mn\nBit rate mode                  : Constant\nBit rate                       : 256 Kbps\nChannel(s)                     : 2 channels\nSampling rate                  : 44.1 KHz\nCompression mode               : Lossy\nStream size                    : 232 MiB (36%)\nAlignment                      : Aligned on interleaves\nInterleave, duration           : 26 ms (0.65 video frame)\n\nRipper : Manojvb\n\nSeeding 24x7... Extreme Seeding...\n\n","torrent":{"xt":"urn:btih:cd9a9969286ac348a8ff8263e22d415c3ccec2a4","amp;dn":"%5BMARATHI%5D+Gholat+Ghol+-+Drama+x264+MP3+%5BTMB%5D","amp;tr":["udp%3A%2F%2Ftracker.openbittorrent.com%3A80","udp%3A%2F%2Fopen.demonii.com%3A1337","udp%3A%2F%2Ftracker.coppersurfer.tk%3A6969","udp%3A%2F%2Fexodus.desync.com%3A6969"],"infoHash":"cd9a9969286ac348a8ff8263e22d415c3ccec2a4","infoHashBuffer":{"type":"Buffer","data":[205,154,153,105,40,106,195,72,168,255,130,99,226,45,65,92,60,206,194,164]},"announce":[],"urlList":[]}}